<svg xmlns="http://www.w3.org/2000/svg" width="16" height="16" viewBox="0 0 16 16">
    <defs>
        <filter id="j92wkp0jia" color-interpolation-filters="auto">
            <feColorMatrix in="SourceGraphic" values="0 0 0 0 0.898039 0 0 0 0 0.227451 0 0 0 0 0.141176 0 0 0 1.000000 0"/>
        </filter>
    </defs>
    <g fill="none" fill-rule="evenodd">
        <g>
            <g>
                <g>
                    <g fill="#000" fill-rule="nonzero" filter="url(#j92wkp0jia)" transform="translate(-1120 -62) translate(0 40) translate(1120 20) translate(0 2)">
                        <path d="M12.5 0h-9C1.567 0 0 1.567 0 3.5v9C0 14.433 1.567 16 3.5 16h9c1.933 0 3.5-1.567 3.5-3.5v-9C16 1.567 14.433 0 12.5 0zM15 12.5c0 1.38-1.12 2.5-2.5 2.5h-9C2.12 15 1 13.88 1 12.5v-9C1 2.12 2.12 1 3.5 1h9C13.88 1 15 2.12 15 3.5v9z"/>
                        <path d="M5 3.5H4c-.276 0-.5.224-.5.5v1c0 .276.224.5.5.5h1c.276 0 .5-.224.5-.5V4c0-.276-.224-.5-.5-.5zM5 7H4c-.276 0-.5.224-.5.5v1c0 .276.224.5.5.5h1c.276 0 .5-.224.5-.5v-1c0-.276-.224-.5-.5-.5zM5 10.5H4c-.276 0-.5.224-.5.5v1c0 .276.224.5.5.5h1c.276 0 .5-.224.5-.5v-1c0-.276-.224-.5-.5-.5zM6.5 4H12.5V5H6.5zM6.5 7.5H12.5V8.5H6.5zM6.5 11H12.5V12H6.5z"/>
                    </g>
                </g>
            </g>
        </g>
    </g>
</svg>
