<svg xmlns="http://www.w3.org/2000/svg" width="16" height="16" viewBox="0 0 16 16">
    <defs>
        <filter id="7wwiq44iba" color-interpolation-filters="auto">
            <feColorMatrix in="SourceGraphic" values="0 0 0 0 0.898039 0 0 0 0 0.227451 0 0 0 0 0.141176 0 0 0 1.000000 0"/>
        </filter>
    </defs>
    <g fill="none" fill-rule="evenodd">
        <g>
            <g>
                <g>
                    <g filter="url(#7wwiq44iba)" transform="translate(-1268 -62) translate(0 40) translate(1268.001 20) translate(0 2)">
                        <path fill="#000" fill-rule="nonzero" d="M13.78 2.462C12.27.886 10.182-.004 7.999 0 3.586-.006.006 3.566 0 7.978c-.003 2.181.887 4.269 2.462 5.778.005.005.006.011.01.015.047.045.097.083.144.126.129.114.257.232.393.342.072.058.148.115.222.167.128.096.256.191.39.279.09.057.184.114.277.171.123.075.246.15.374.217.108.058.218.107.328.159.12.057.238.114.36.165.123.052.247.092.371.136.125.045.232.086.352.123.135.04.273.071.41.105.114.028.225.06.343.083.157.031.317.051.477.073.099.014.196.033.296.043.261.026.525.04.791.04s.53-.014.792-.04c.1-.01.197-.03.295-.043.16-.022.32-.042.478-.073.114-.023.228-.057.343-.083.137-.034.275-.065.41-.105.12-.037.235-.082.351-.123.117-.04.25-.085.371-.136.122-.05.241-.109.361-.165.11-.052.22-.101.328-.159.127-.068.25-.142.374-.217.093-.057.186-.109.277-.171.134-.088.262-.183.39-.279.074-.057.15-.108.222-.167.135-.108.264-.224.392-.342.047-.043.098-.08.144-.126.004-.003.006-.01.01-.015 3.186-3.052 3.295-8.108.243-11.294zm-1.283 10.696c-.104.091-.212.178-.32.262-.064.05-.128.098-.194.145-.103.075-.208.145-.315.213-.078.05-.157.098-.237.145l-.306.171c-.092.047-.185.091-.279.135-.093.043-.197.09-.298.13-.1.04-.208.079-.314.114-.097.033-.193.067-.29.097-.115.034-.234.062-.353.09-.092.022-.184.047-.277.065-.136.026-.274.045-.413.063-.079.01-.157.025-.236.033-.22.021-.442.034-.666.034-.225 0-.447-.013-.666-.034-.08-.008-.158-.022-.237-.033-.139-.018-.277-.037-.412-.063-.094-.018-.186-.043-.278-.065-.118-.028-.236-.057-.352-.09-.098-.03-.194-.064-.29-.097-.106-.037-.212-.074-.315-.114-.103-.04-.2-.085-.298-.13-.098-.046-.187-.088-.278-.135-.104-.053-.206-.11-.307-.171-.08-.047-.159-.095-.237-.145-.106-.068-.212-.138-.315-.213-.066-.047-.13-.096-.194-.145-.108-.084-.216-.171-.32-.262-.025-.019-.048-.043-.072-.065.025-1.943 1.274-3.659 3.115-4.281.92.438 1.99.438 2.91 0 1.841.622 3.09 2.338 3.115 4.281l-.071.065zM6.006 4.58c.619-1.1 2.012-1.49 3.112-.871 1.1.618 1.49 2.011.872 3.111-.206.365-.507.667-.872.872-.003 0-.007 0-.01.003-.151.085-.312.153-.478.203-.03.008-.057.02-.088.027-.057.015-.117.025-.176.036-.11.019-.223.03-.335.033h-.066c-.112-.003-.224-.014-.335-.033-.057-.01-.118-.021-.176-.036-.03-.007-.057-.019-.088-.027-.166-.05-.326-.118-.478-.203l-.01-.003c-1.1-.618-1.49-2.012-.872-3.112zm7.576 7.38c-.367-1.71-1.493-3.159-3.059-3.937 1.28-1.395 1.187-3.563-.207-4.843-1.395-1.28-3.563-1.187-4.843.207-1.203 1.311-1.203 3.325 0 4.636-1.566.778-2.692 2.228-3.058 3.938C.224 8.875.949 4.598 4.035 2.407c3.086-2.19 7.363-1.465 9.553 1.62.824 1.16 1.266 2.548 1.265 3.97 0 1.422-.444 2.808-1.271 3.964z"/>
                    </g>
                </g>
            </g>
        </g>
    </g>
</svg>
